<?xml version="1.0" standalone="no"?>
<!DOCTYPE svg PUBLIC "-//W3C//DTD SVG 20010904//EN"
 "http://www.w3.org/TR/2001/REC-SVG-20010904/DTD/svg10.dtd">
<svg version="1.0" xmlns="http://www.w3.org/2000/svg"
 width="600.000000pt" height="600.000000pt" viewBox="0 0 600.000000 600.000000"
 preserveAspectRatio="xMidYMid meet">
<metadata>
Created by potrace 1.14, written by Peter Selinger 2001-2017
</metadata>
<g transform="translate(0.000000,600.000000) scale(0.100000,-0.100000)"
fill="#000000" stroke="none">
<path d="M0 3000 l0 -3000 3000 0 3000 0 0 3000 0 3000 -3000 0 -3000 0 0
-3000z m4342 1256 c44 -23 247 -206 263 -237 17 -33 19 -77 5 -114 -5 -14 -90
-122 -188 -238 -98 -117 -483 -576 -856 -1022 -374 -445 -700 -831 -725 -858
-93 -97 -138 -87 -310 71 -69 64 -351 325 -627 579 -275 254 -506 474 -512
488 -15 33 -15 104 1 131 17 31 188 222 213 239 35 23 96 35 135 26 29 -7 670
-389 936 -557 l52 -33 123 127 c134 138 141 145 843 876 264 274 493 507 510
517 36 22 99 24 137 5z"/>
</g>
</svg>
